<svg width="41" height="41" viewBox="0 0 41 41" fill="none" xmlns="http://www.w3.org/2000/svg">
<g clip-path="url(#clip0)">
<path d="M27.0309 4.73071H13.969C12.527 4.73071 11.3539 5.9038 11.3539 7.34585V36.8078C11.3539 38.2499 12.527 39.423 13.969 39.423H27.031C28.4731 39.423 29.6462 38.2499 29.6462 36.8078V7.34594C29.6462 5.9038 28.4731 4.73071 27.0309 4.73071ZM28.3846 36.8079C28.3846 37.5541 27.7771 38.1615 27.0309 38.1615H13.969C13.2228 38.1615 12.6154 37.5541 12.6154 36.8079V7.34594C12.6154 6.59974 13.2228 5.99231 13.969 5.99231H27.031C27.7772 5.99231 28.3847 6.59974 28.3847 7.34594V36.8079H28.3846Z" fill="black"/>
<path d="M23.9693 1.5769H17.0308C16.6825 1.5769 16.4 1.85936 16.4 2.2077V5.36152C16.4 5.70986 16.6825 5.99232 17.0308 5.99232H23.9693C24.3176 5.99232 24.6001 5.70986 24.6001 5.36152V2.2077C24.6 1.85936 24.3176 1.5769 23.9693 1.5769ZM23.3385 4.73072H17.6615V2.83841H23.3385V4.73072Z" fill="black"/>
<path d="M25.1318 18.8996C25.0161 18.7175 24.8155 18.6076 24.5999 18.6076H20.8153V12.9306C20.8153 12.635 20.6098 12.379 20.3212 12.315C20.03 12.2512 19.7379 12.396 19.6129 12.664L15.1975 22.1255C15.1064 22.3207 15.1215 22.5494 15.2372 22.7311C15.353 22.9132 15.5536 23.0231 15.7692 23.0231H19.5538V28.7001C19.5538 28.9957 19.7593 29.2517 20.0478 29.3157C20.0938 29.326 20.1396 29.3309 20.1849 29.3309C20.4257 29.3309 20.6508 29.1923 20.7562 28.9667L25.1716 19.5052C25.2627 19.31 25.2476 19.0813 25.1318 18.8996ZM19.5538 21.7615H16.7597L19.5538 15.7738V21.7615ZM20.8153 25.857V19.8692H23.6094L20.8153 25.857Z" fill="black"/>
</g>
<defs>
<clipPath id="clip0">
<rect width="37.8462" height="37.8462" fill="white" transform="translate(1.5769 1.5769)"/>
</clipPath>
</defs>
</svg>
