<svg width="41" height="41" viewBox="0 0 41 41" fill="none" xmlns="http://www.w3.org/2000/svg">
<g clip-path="url(#clip0)">
<path d="M30.5923 9.77688H28.7V3.46921C28.7 2.39688 27.88 1.5769 26.8077 1.5769C25.7353 1.5769 24.9154 2.39688 24.9154 3.46921V9.77688H16.0846V3.46921C16.0846 2.39688 15.2647 1.5769 14.1923 1.5769C13.12 1.5769 12.3 2.39688 12.3 3.46921V9.77688H10.4077C10.0293 9.77688 9.77698 10.0292 9.77698 10.4076V15.2014C9.77698 18.3553 10.9754 21.383 13.1201 23.7168C15.0124 25.8614 16.0847 28.6368 16.0847 31.4753V33.1153C16.0847 34.8814 17.4724 36.2692 19.2386 36.2692H19.8693V38.7922C19.8693 39.1707 20.1216 39.423 20.5001 39.423C20.8785 39.423 21.1308 39.1707 21.1308 38.7922V36.2692H21.7616C23.5277 36.2692 24.9154 34.8815 24.9154 33.1153V31.5384C24.9154 28.6369 25.9247 25.9245 27.8801 23.78C30.0247 21.4461 31.2232 18.3553 31.2232 15.2015V10.4077C31.2231 10.0292 30.9708 9.77688 30.5923 9.77688ZM26.1769 3.46921C26.1769 3.09075 26.4292 2.83847 26.8077 2.83847C27.1861 2.83847 27.4384 3.09075 27.4384 3.46921V9.77688H26.1769V3.46921ZM13.5615 3.46921C13.5615 3.1538 13.8138 2.83847 14.1923 2.83847C14.5707 2.83847 14.823 3.09075 14.823 3.46921V9.77688H13.5614V3.46921H13.5615ZM29.9615 15.1385C29.9615 18.04 28.9523 20.7523 26.9969 22.8969C24.8523 25.2308 23.6539 28.3215 23.6539 31.4754V33.1154C23.6539 34.1877 22.8339 35.0077 21.7616 35.0077H19.2385C18.1662 35.0077 17.3462 34.1877 17.3462 33.1154V31.5385C17.3462 28.3846 16.1478 25.2939 14.0031 22.9601C12.1108 20.8154 11.0385 18.04 11.0385 15.2015V11.0384H12.9308H15.4538H25.5461H28.0692H29.9615V15.1385Z" fill="black"/>
<path d="M23.0231 17.977H19.4908L22.8339 14.6339C23.0862 14.3816 23.0862 14.0031 22.8339 13.7508C22.5816 13.4984 22.2031 13.4985 21.9508 13.7508L17.5354 18.1661C17.3462 18.3554 17.2831 18.6076 17.4092 18.86C17.4723 19.1123 17.7246 19.2385 17.9769 19.2385H21.5093L18.1662 22.5816C17.9139 22.8338 17.9139 23.2123 18.1662 23.4647C18.2923 23.5908 18.4184 23.6539 18.6077 23.6539C18.7969 23.6539 18.9231 23.5908 19.0492 23.4647L23.4645 19.0493C23.6538 18.8601 23.7168 18.6078 23.5907 18.3554C23.5277 18.1031 23.2755 17.977 23.0231 17.977Z" fill="black"/>
</g>
<defs>
<clipPath id="clip0">
<rect width="37.8462" height="37.8462" fill="white" transform="translate(1.5769 1.5769)"/>
</clipPath>
</defs>
</svg>
