<svg width="68" height="68" viewBox="0 0 68 68" xmlns="http://www.w3.org/2000/svg">
<g clip-path="url(#clip0)">
<path d="M36.404 11.4131C35.428 10.8611 34.273 10.8791 33.314 11.4571C33.268 11.4841 33.224 11.5161 33.184 11.5501L19.634 23.0131H9C8.447 23.0131 8 23.4601 8 24.0131V43.0131C8 43.2791 8.105 43.5331 8.293 43.7201C8.481 43.9071 8.734 44.0131 9 44.0131L19.61 44.0081L33.153 56.4481C33.203 56.4941 33.257 56.5341 33.314 56.5681C33.806 56.8651 34.351 57.0141 34.896 57.0141C35.413 57.0131 35.929 56.8801 36.404 56.6121C37.403 56.0481 38 55.0181 38 53.8571V14.1691C38 13.0081 37.403 11.9781 36.404 11.4131ZM36 53.8571C36 54.2881 35.783 54.6671 35.421 54.8721C35.266 54.9591 34.873 55.1271 34.421 54.8981L21 42.5691V38.0131C21 37.4601 20.553 37.0131 20 37.0131C19.447 37.0131 19 37.4601 19 38.0131V42.0091L10 42.0131V25.0131H19V29.0131C19 29.5661 19.447 30.0131 20 30.0131C20.553 30.0131 21 29.5661 21 29.0131V24.4771L34.405 13.1371C34.866 12.8951 35.265 13.0671 35.421 13.1551C35.783 13.3601 36 13.7391 36 14.1691V53.8571Z" fill="black"/>
<path d="M46.797 15.066C46.274 14.889 45.706 15.169 45.528 15.692C45.351 16.214 45.631 16.783 46.154 16.961C53.255 19.372 58.026 26.024 58.026 33.514C58.026 40.997 53.264 47.65 46.177 50.068C45.655 50.246 45.375 50.814 45.554 51.338C45.696 51.753 46.084 52.015 46.5 52.015C46.607 52.015 46.716 51.998 46.823 51.961C54.719 49.268 60.025 41.855 60.025 33.515C60.026 25.166 54.71 17.753 46.797 15.066Z" fill="black"/>
<path d="M51.026 33.5131C51.026 27.5411 47.017 22.2111 41.277 20.5511C40.744 20.4001 40.193 20.7031 40.039 21.2351C39.886 21.7651 40.191 22.3201 40.723 22.4731C45.612 23.8861 49.027 28.4261 49.027 33.5131C49.027 38.6001 45.612 43.1401 40.723 44.5531C40.192 44.7061 39.886 45.2611 40.039 45.7911C40.166 46.2291 40.565 46.5141 41 46.5141C41.092 46.5141 41.185 46.5011 41.277 46.4751C47.018 44.8151 51.026 39.4851 51.026 33.5131Z" fill="black"/>
</g>
<defs>
<clipPath id="clip0">
<rect width="52.026" height="52.026" fill="white" transform="translate(8 8)"/>
</clipPath>
</defs>
</svg>
