<svg xmlns="http://www.w3.org/2000/svg">
  <symbol id="logo">
    <path d="M20 26C23.3 26 26 23.3 26 20C26 16.7 23.3 14 20 14C16.7 14 14 16.7 14 20C14 23.3 16.7 26 20 26ZM20 0C18 0 15.9 0.3 14 0.9V12C18.4 8.7 24.7 9.6 28 14C31.3 18.4 30.4 24.7 26 28C21.6 31.3 15.3 30.4 12 26C10.7 24.3 10 22.2 10 20V2.7C0.40002 8.2 -2.79998 20.4 2.70002 30C8.20002 39.6 20.4 42.8 30 37.3C39.6 31.8 42.8 19.6 37.3 10C33.8 3.8 27.2 0 20 0Z" fill="#E01F3D"/>
  </symbol>
  <symbol id="battery" viewBox="0 0 68 68">
    <path d="M35.634 41.9891C36.675 41.9081 37.624 41.3771 38.24 40.5301L47.603 27.5861C47.89 27.1891 47.847 26.6411 47.499 26.2931C47.151 25.9461 46.603 25.9031 46.206 26.1891L33.26 35.5551C32.416 36.1691 31.885 37.1181 31.804 38.1591C31.723 39.2001 32.1 40.2191 32.837 40.9561C33.508 41.6281 34.413 42.0001 35.354 42.0001C35.447 42.0001 35.54 41.9961 35.634 41.9891ZM33.798 38.3151C33.833 37.8581 34.067 37.4411 34.435 37.1731L42.332 31.4601L36.621 39.3551C36.351 39.7261 35.934 39.9591 35.477 39.9951C35.022 40.0251 34.575 39.8671 34.25 39.5421C33.928 39.2191 33.762 38.7711 33.798 38.3151Z"/>
    <path d="M58.034 23.564C58.024 23.543 58.024 23.521 58.013 23.5C58.001 23.48 57.982 23.469 57.969 23.45C56.958 21.716 55.762 20.103 54.404 18.641L56.552 16.494L57.966 17.908L62.208 13.665L57.966 9.423L53.723 13.665L55.138 15.08L52.99 17.227C51.528 15.869 49.916 14.672 48.181 13.661C48.162 13.648 48.151 13.629 48.131 13.617C48.11 13.605 48.088 13.606 48.067 13.595C44.974 11.813 41.499 10.626 37.794 10.191V9H39.294C40.673 9 41.794 7.879 41.794 6.5C41.794 5.121 40.672 4 39.293 4H30.293C28.914 4 27.793 5.121 27.793 6.5C27.793 7.879 28.914 9 30.293 9H31.793V10.156C30.713 10.271 29.635 10.447 28.569 10.691C28.031 10.814 27.694 11.351 27.818 11.889C27.941 12.427 28.478 12.765 29.016 12.64C29.936 12.429 30.865 12.27 31.796 12.163L32.869 12.08C33.197 12.055 33.499 12.037 33.793 12.023V14C33.793 14.553 34.24 15 34.793 15C35.346 15 35.793 14.553 35.793 14V12.03C39.554 12.203 43.098 13.213 46.249 14.875L45.263 16.582C44.987 17.061 45.151 17.672 45.629 17.948C45.786 18.039 45.958 18.082 46.128 18.082C46.474 18.082 46.81 17.903 46.995 17.582L47.978 15.879C51.107 17.864 53.765 20.522 55.75 23.651L54.047 24.634C53.57 24.91 53.406 25.521 53.683 26C53.869 26.321 54.204 26.5 54.55 26.5C54.72 26.5 54.892 26.457 55.049 26.366L56.756 25.38C58.441 28.576 59.454 32.178 59.605 35.999H57.63C57.077 35.999 56.63 36.446 56.63 36.999C56.63 37.552 57.077 37.999 57.63 37.999H59.605C59.454 41.82 58.441 45.422 56.756 48.618L55.049 47.632C54.571 47.356 53.959 47.518 53.683 47.998C53.407 48.477 53.571 49.088 54.049 49.364L55.752 50.347C53.767 53.476 51.109 56.134 47.98 58.119L46.997 56.416C46.72 55.936 46.107 55.773 45.631 56.05C45.152 56.326 44.988 56.938 45.265 57.416L46.251 59.123C43.1 60.785 39.556 61.795 35.795 61.968V60C35.795 59.447 35.348 59 34.795 59C34.242 59 33.795 59.447 33.795 60V61.976C32.198 61.921 30.596 61.721 29.019 61.359C28.481 61.23 27.944 61.572 27.821 62.11C27.697 62.648 28.034 63.185 28.572 63.308C30.568 63.768 32.607 64 34.63 64C34.679 64 34.726 63.997 34.775 63.996C34.782 63.996 34.787 64 34.793 64C34.801 64 34.808 63.995 34.816 63.995C39.623 63.962 44.133 62.664 48.035 60.422C48.066 60.408 48.099 60.401 48.129 60.383C48.149 60.371 48.16 60.352 48.179 60.339C52.218 57.985 55.593 54.614 57.952 50.578C57.971 50.551 57.995 50.53 58.012 50.5C58.024 50.479 58.023 50.457 58.033 50.436C60.317 46.476 61.63 41.89 61.63 37C61.63 32.11 60.317 27.524 58.034 23.564ZM57.965 12.251L59.379 13.665L57.965 15.08L56.55 13.665L57.965 12.251ZM33.793 10.021V7H30.293C30.018 7 29.793 6.775 29.793 6.5C29.793 6.225 30.018 6 30.293 6H39.293C39.568 6 39.793 6.225 39.793 6.5C39.793 6.775 39.568 7 39.293 7H35.793V10.021C35.445 10.007 35.113 10 34.793 10C34.765 10 34.733 10.002 34.705 10.002C34.68 10.002 34.655 10 34.63 10C34.466 10 34.302 10.011 34.138 10.014C34.022 10.017 33.913 10.016 33.793 10.021Z"/>
    <path d="M25.793 18H20.793C20.24 18 19.793 18.447 19.793 19C19.793 19.553 20.24 20 20.793 20H25.793C26.346 20 26.793 19.553 26.793 19C26.793 18.447 26.346 18 25.793 18Z"/>
    <path d="M25.793 25H15.793C15.24 25 14.793 25.447 14.793 26C14.793 26.553 15.24 27 15.793 27H25.793C26.346 27 26.793 26.553 26.793 26C26.793 25.447 26.346 25 25.793 25Z"/>
    <path d="M25.793 32H10.793C10.24 32 9.79303 32.447 9.79303 33C9.79303 33.553 10.24 34 10.793 34H25.793C26.346 34 26.793 33.553 26.793 33C26.793 32.447 26.346 32 25.793 32Z"/>
    <path d="M25.793 39H6.79303C6.24003 39 5.79303 39.447 5.79303 40C5.79303 40.553 6.24003 41 6.79303 41H25.793C26.346 41 26.793 40.553 26.793 40C26.793 39.447 26.346 39 25.793 39Z"/>
    <path d="M25.793 46H12.793C12.24 46 11.793 46.447 11.793 47C11.793 47.553 12.24 48 12.793 48H25.793C26.346 48 26.793 47.553 26.793 47C26.793 46.447 26.346 46 25.793 46Z"/>
    <path d="M25.793 53H18.793C18.24 53 17.793 53.447 17.793 54C17.793 54.553 18.24 55 18.793 55H25.793C26.346 55 26.793 54.553 26.793 54C26.793 53.447 26.346 53 25.793 53Z"/>
  </symbol>
  <symbol id="circle">
      <circle r="65" cx="70" cy="70"
      fill="transparent" stroke="crimson" stroke-width="5"/>
  </symbol>
  <symbol id="hero-battery" viewBox="0 0 41 41">
    <g clip-path="url(#clip0)">
    <path d="M27.0309 4.73071H13.969C12.527 4.73071 11.3539 5.9038 11.3539 7.34585V36.8078C11.3539 38.2499 12.527 39.423 13.969 39.423H27.031C28.4731 39.423 29.6462 38.2499 29.6462 36.8078V7.34594C29.6462 5.9038 28.4731 4.73071 27.0309 4.73071ZM28.3846 36.8079C28.3846 37.5541 27.7771 38.1615 27.0309 38.1615H13.969C13.2228 38.1615 12.6154 37.5541 12.6154 36.8079V7.34594C12.6154 6.59974 13.2228 5.99231 13.969 5.99231H27.031C27.7772 5.99231 28.3847 6.59974 28.3847 7.34594V36.8079H28.3846Z"/>
    <path d="M23.9693 1.5769H17.0308C16.6825 1.5769 16.4 1.85936 16.4 2.2077V5.36152C16.4 5.70986 16.6825 5.99232 17.0308 5.99232H23.9693C24.3176 5.99232 24.6001 5.70986 24.6001 5.36152V2.2077C24.6 1.85936 24.3176 1.5769 23.9693 1.5769ZM23.3385 4.73072H17.6615V2.83841H23.3385V4.73072Z"/>
    <path d="M25.1318 18.8996C25.0161 18.7175 24.8155 18.6076 24.5999 18.6076H20.8153V12.9306C20.8153 12.635 20.6098 12.379 20.3212 12.315C20.03 12.2512 19.7379 12.396 19.6129 12.664L15.1975 22.1255C15.1064 22.3207 15.1215 22.5494 15.2372 22.7311C15.353 22.9132 15.5536 23.0231 15.7692 23.0231H19.5538V28.7001C19.5538 28.9957 19.7593 29.2517 20.0478 29.3157C20.0938 29.326 20.1396 29.3309 20.1849 29.3309C20.4257 29.3309 20.6508 29.1923 20.7562 28.9667L25.1716 19.5052C25.2627 19.31 25.2476 19.0813 25.1318 18.8996ZM19.5538 21.7615H16.7597L19.5538 15.7738V21.7615ZM20.8153 25.857V19.8692H23.6094L20.8153 25.857Z"/>
    </g>
    <defs>
    <clipPath id="clip0">
    <rect width="37.8462" height="37.8462" fill="white" transform="translate(1.5769 1.5769)"/>
    </clipPath>
    </defs>
  </symbol>
  <symbol id="hero-fuel" viewBox="0 0 41 41" >
    <g clip-path="url(#clip0)">
    <path d="M30.5923 9.77688H28.7V3.46921C28.7 2.39688 27.88 1.5769 26.8077 1.5769C25.7353 1.5769 24.9154 2.39688 24.9154 3.46921V9.77688H16.0846V3.46921C16.0846 2.39688 15.2647 1.5769 14.1923 1.5769C13.12 1.5769 12.3 2.39688 12.3 3.46921V9.77688H10.4077C10.0293 9.77688 9.77698 10.0292 9.77698 10.4076V15.2014C9.77698 18.3553 10.9754 21.383 13.1201 23.7168C15.0124 25.8614 16.0847 28.6368 16.0847 31.4753V33.1153C16.0847 34.8814 17.4724 36.2692 19.2386 36.2692H19.8693V38.7922C19.8693 39.1707 20.1216 39.423 20.5001 39.423C20.8785 39.423 21.1308 39.1707 21.1308 38.7922V36.2692H21.7616C23.5277 36.2692 24.9154 34.8815 24.9154 33.1153V31.5384C24.9154 28.6369 25.9247 25.9245 27.8801 23.78C30.0247 21.4461 31.2232 18.3553 31.2232 15.2015V10.4077C31.2231 10.0292 30.9708 9.77688 30.5923 9.77688ZM26.1769 3.46921C26.1769 3.09075 26.4292 2.83847 26.8077 2.83847C27.1861 2.83847 27.4384 3.09075 27.4384 3.46921V9.77688H26.1769V3.46921ZM13.5615 3.46921C13.5615 3.1538 13.8138 2.83847 14.1923 2.83847C14.5707 2.83847 14.823 3.09075 14.823 3.46921V9.77688H13.5614V3.46921H13.5615ZM29.9615 15.1385C29.9615 18.04 28.9523 20.7523 26.9969 22.8969C24.8523 25.2308 23.6539 28.3215 23.6539 31.4754V33.1154C23.6539 34.1877 22.8339 35.0077 21.7616 35.0077H19.2385C18.1662 35.0077 17.3462 34.1877 17.3462 33.1154V31.5385C17.3462 28.3846 16.1478 25.2939 14.0031 22.9601C12.1108 20.8154 11.0385 18.04 11.0385 15.2015V11.0384H12.9308H15.4538H25.5461H28.0692H29.9615V15.1385Z" fill="black"/>
    <path d="M23.0231 17.977H19.4908L22.8339 14.6339C23.0862 14.3816 23.0862 14.0031 22.8339 13.7508C22.5816 13.4984 22.2031 13.4985 21.9508 13.7508L17.5354 18.1661C17.3462 18.3554 17.2831 18.6076 17.4092 18.86C17.4723 19.1123 17.7246 19.2385 17.9769 19.2385H21.5093L18.1662 22.5816C17.9139 22.8338 17.9139 23.2123 18.1662 23.4647C18.2923 23.5908 18.4184 23.6539 18.6077 23.6539C18.7969 23.6539 18.9231 23.5908 19.0492 23.4647L23.4645 19.0493C23.6538 18.8601 23.7168 18.6078 23.5907 18.3554C23.5277 18.1031 23.2755 17.977 23.0231 17.977Z" fill="black"/>
    </g>
    <defs>
    <clipPath id="clip0">
    <rect width="37.8462" height="37.8462" fill="white" transform="translate(1.5769 1.5769)"/>
    </clipPath>
    </defs>
  </symbol>
  <symbol id="hero-sound" viewBox="0 0 41 41">
    <g clip-path="url(#clip0)">
    <path d="M12.5923 0.788574C6.0838 0.788574 0.788452 6.52525 0.788452 13.6082C0.813499 15.2505 1.26379 16.8583 2.0954 18.2747C2.48837 18.9451 2.82485 19.647 3.10135 20.3732C3.28473 20.9069 3.10872 21.4982 2.6633 21.8447C1.88835 22.4642 1.43928 23.4042 1.44422 24.3963C1.44111 25.4865 1.9801 26.507 2.88233 27.1191C3.20669 27.3394 3.40398 27.7035 3.41153 28.0955V33.5771C3.41153 37.193 6.05888 40.1348 9.31347 40.1348C12.5681 40.1348 15.2154 37.193 15.2154 33.5771C15.2054 30.8763 16.3799 28.307 18.4287 26.5472C22.2694 23.3426 24.4615 18.5778 24.3962 13.5761C24.3962 6.52525 19.1008 0.788574 12.5923 0.788574ZM17.5762 25.5511C15.2357 27.5595 13.8934 30.4931 13.9039 33.5771C13.9039 36.4697 11.8441 38.8233 9.31347 38.8233C6.78285 38.8233 4.72307 36.4697 4.72307 33.5771V28.0955C4.71245 27.2833 4.31391 26.5253 3.65089 26.0561C3.09063 25.6902 2.75372 25.0655 2.75576 24.3963C2.75126 23.7931 3.02755 23.2221 3.50334 22.8513C4.37644 22.1518 4.70981 20.9756 4.33355 19.922C4.03153 19.1276 3.66367 18.3599 3.23382 17.6268C2.51115 16.3977 2.12043 15.0018 2.09999 13.5761C2.09999 7.24857 6.80711 2.10012 12.5923 2.10012C18.3775 2.10012 23.0846 7.24857 23.0846 13.5761C23.1447 18.1934 21.1213 22.5921 17.5762 25.5511Z" fill="black"/>
    <path d="M12.5924 4.06738C8.93776 4.06738 5.82154 6.65899 4.61164 10.2815C4.60312 10.3031 4.59721 10.3241 4.59066 10.347C4.24491 11.3989 4.06784 12.499 4.06604 13.6062C4.06604 14.3931 4.06604 16.7998 5.56972 18.3035C5.82703 18.552 6.23604 18.5485 6.48899 18.2955C6.74195 18.0426 6.7455 17.6336 6.49698 17.3762C5.95823 16.7774 5.61227 16.0301 5.50414 15.2319C5.60972 15.2253 5.71399 15.2168 5.82351 15.2168C8.83349 15.2155 11.2808 17.9697 11.2808 21.3535C11.2808 21.6676 11.2657 21.9627 11.2415 22.2539C10.915 22.6025 10.5677 22.9309 10.2014 23.2375C8.29145 24.8017 7.23286 27.1763 7.3462 29.6424C7.3462 30.0046 7.6398 30.2982 8.00198 30.2982C8.36415 30.2982 8.65775 30.0046 8.65775 29.6424C8.54493 27.5631 9.43365 25.5553 11.0487 24.2408C13.3623 22.465 14.6711 19.6775 14.5597 16.7631C14.5597 12.658 11.471 9.31355 7.67409 9.31355C7.23791 9.3147 6.80302 9.36084 6.37632 9.45126C7.51617 7.03159 9.91882 5.45754 12.5924 5.37892C16.5696 5.37892 19.8058 9.06894 19.8058 13.6049C19.8574 17.1782 18.3077 20.5873 15.5814 22.8978C15.4909 22.9759 15.3905 23.0598 15.2817 23.151C13.9767 24.2356 11.2625 26.4954 10.629 32.1934C10.5907 32.5524 10.8498 32.8749 11.2087 32.9147C11.2326 32.9182 11.2567 32.9204 11.2808 32.9213C11.6149 32.921 11.8953 32.6696 11.932 32.3376C12.5071 27.1636 14.8567 25.2088 16.1198 24.1589C16.2358 24.0618 16.3427 23.9726 16.4385 23.89C19.4568 21.3332 21.1732 17.5602 21.1174 13.6049C21.1174 8.34563 17.2929 4.06738 12.5924 4.06738ZM7.67409 10.6251C10.7477 10.6251 13.2481 13.3793 13.2481 16.7631C13.2779 18.0039 13.0315 19.2359 12.5268 20.3698C12.0868 16.7238 9.25253 13.9039 5.82482 13.9039C5.67333 13.9039 5.52775 13.9151 5.38152 13.9256C5.38152 13.7997 5.38152 13.6902 5.38152 13.6049C5.38175 12.7279 5.50718 11.8555 5.75399 11.014C6.36207 10.7588 7.01466 10.6266 7.67409 10.6251Z" fill="black"/>
    <path d="M33.5769 15.8712C33.6272 13.8044 34.5038 11.844 36.0105 10.4283C36.1935 10.2658 36.2708 10.0148 36.2108 9.77751C36.1509 9.54018 35.9638 9.35597 35.7256 9.29977C35.4874 9.24356 35.2377 9.32472 35.078 9.51025C33.3266 11.1685 32.3134 13.4598 32.2654 15.8712C32.3134 18.2826 33.3266 20.574 35.078 22.2322C35.2377 22.4177 35.4874 22.4989 35.7256 22.4427C35.9638 22.3865 36.1509 22.2023 36.2108 21.9649C36.2708 21.7276 36.1935 21.4767 36.0105 21.3141C34.5038 19.8985 33.6272 17.938 33.5769 15.8712Z" fill="black"/>
    <path d="M37.9477 12.1025C37.8178 11.9869 37.6473 11.9275 37.4736 11.9376C37.3 11.9477 37.1374 12.0264 37.0218 12.1563C35.052 14.2413 35.052 17.5012 37.0218 19.5862C37.1776 19.7612 37.4149 19.8398 37.6444 19.7924C37.8738 19.745 38.0606 19.5787 38.1342 19.3563C38.2079 19.1339 38.1573 18.889 38.0015 18.714C36.474 17.1266 36.474 14.6159 38.0015 13.0285C38.1172 12.8986 38.1765 12.728 38.1664 12.5544C38.1563 12.3807 38.0777 12.2182 37.9477 12.1025Z" fill="black"/>
    <path d="M39.9661 14.1209C39.7238 13.8519 39.3093 13.8302 39.0402 14.0724C38.489 14.5066 38.1674 15.1695 38.1674 15.8712C38.1674 16.5728 38.489 17.2358 39.0402 17.67C39.2134 17.8322 39.4608 17.8883 39.687 17.8164C39.9132 17.7445 40.083 17.556 40.1308 17.3235C40.1786 17.091 40.0971 16.8508 39.9176 16.6955C39.6633 16.4935 39.5044 16.1949 39.4789 15.8712C39.5044 15.5475 39.6633 15.2489 39.9176 15.0469C40.1866 14.8046 40.2083 14.3901 39.9661 14.1209Z" fill="black"/>
    <path d="M30.2981 15.8714C30.2981 12.986 31.5906 10.1976 34.036 7.81588C34.2037 7.65189 34.2713 7.41085 34.2131 7.18358C34.1549 6.95631 33.98 6.77732 33.7541 6.71405C33.5282 6.65077 33.2857 6.71282 33.1179 6.87682C30.4161 9.5104 28.9866 12.6207 28.9866 15.8714C28.9866 19.122 30.4161 22.2324 33.1179 24.8659C33.3772 25.1195 33.793 25.1148 34.0465 24.8554C34.3 24.5961 34.2953 24.1804 34.036 23.9269C31.5906 21.5451 30.2981 18.7568 30.2981 15.8714Z" fill="black"/>
    <path d="M27.0193 15.8714C27.0193 12.2686 28.542 8.79823 31.4241 5.83809C31.5881 5.67011 31.6501 5.42739 31.5866 5.20137C31.5231 4.97536 31.3439 4.80037 31.1164 4.74234C30.8889 4.6843 30.6478 4.75203 30.4838 4.92001C27.3597 8.13328 25.7078 11.9204 25.7078 15.8714C25.7078 19.8224 27.3597 23.6095 30.4838 26.8227C30.7373 27.0824 31.1533 27.0874 31.413 26.8339C31.6727 26.5804 31.6777 26.1643 31.4241 25.9046C28.542 22.9445 27.0193 19.4742 27.0193 15.8714Z" fill="black"/>
    </g>
    <defs>
    <clipPath id="clip0">
    <rect width="39.4231" height="39.3462" fill="white" transform="translate(0.788452 0.788574)"/>
    </clipPath>
    </defs>
  </symbol>
  <symbol id="phone" viewBox="0 0 14 15" >
    <g clip-path="url(#clip0)">
    <path d="M13.7455 13.0923C13.4909 13.5935 12.9818 13.8441 12.4727 14.0947C11.8364 14.4706 11.3273 14.5959 10.6909 14.5959C9.8 14.5959 8.90909 14.22 8.14545 13.9694C7.50909 13.7188 7 13.4682 6.36364 13.2176C4.58182 12.09 2.54545 10.0853 1.52727 8.45643C1.14545 7.82996 0.890909 7.32878 0.636364 6.70231C0.381818 5.82525 0 5.07349 0 4.07113C0 3.44466 0.127273 2.81819 0.509091 2.19172C0.763636 1.69054 1.01818 1.18936 1.52727 0.938771C1.90909 0.938771 2.54545 0.813477 2.92727 0.813477C3.05455 0.813477 3.05455 0.813477 3.18182 0.813477C3.43636 0.938771 3.56364 1.31465 3.69091 1.56524C3.94545 2.19172 4.32727 2.69289 4.58182 3.31936C4.83636 3.56995 5.09091 3.82054 5.09091 4.07113C5.09091 4.6976 3.30909 5.57466 3.30909 6.07584C3.30909 6.32643 3.56364 6.70231 3.69091 6.9529C4.70909 8.70702 5.98182 9.95997 7.76364 10.9623C8.01818 11.0876 8.4 11.3382 8.65455 11.3382C9.16364 11.3382 10.0545 9.58408 10.6909 9.58408C10.9455 9.58408 11.2 9.83467 11.4545 10.0853C11.9636 10.4611 12.6 10.7117 13.1091 11.0876C13.3636 11.2129 13.7455 11.3382 13.8727 11.5888C13.8727 11.7141 13.8727 11.7141 13.8727 11.8394C14 12.09 13.8727 12.7164 13.7455 13.0923Z" fill="#292929"/>
    </g>
    <defs>
    <clipPath id="clip0">
    <rect width="14" height="13.7824" fill="white" transform="translate(0 0.813477)"/>
    </clipPath>
    </defs>
  </symbol>
  <symbol id="sound" viewBox="0 0 68 68">
    <g clip-path="url(#clip0)">
    <path d="M36.404 11.4131C35.428 10.8611 34.273 10.8791 33.314 11.4571C33.268 11.4841 33.224 11.5161 33.184 11.5501L19.634 23.0131H9C8.447 23.0131 8 23.4601 8 24.0131V43.0131C8 43.2791 8.105 43.5331 8.293 43.7201C8.481 43.9071 8.734 44.0131 9 44.0131L19.61 44.0081L33.153 56.4481C33.203 56.4941 33.257 56.5341 33.314 56.5681C33.806 56.8651 34.351 57.0141 34.896 57.0141C35.413 57.0131 35.929 56.8801 36.404 56.6121C37.403 56.0481 38 55.0181 38 53.8571V14.1691C38 13.0081 37.403 11.9781 36.404 11.4131ZM36 53.8571C36 54.2881 35.783 54.6671 35.421 54.8721C35.266 54.9591 34.873 55.1271 34.421 54.8981L21 42.5691V38.0131C21 37.4601 20.553 37.0131 20 37.0131C19.447 37.0131 19 37.4601 19 38.0131V42.0091L10 42.0131V25.0131H19V29.0131C19 29.5661 19.447 30.0131 20 30.0131C20.553 30.0131 21 29.5661 21 29.0131V24.4771L34.405 13.1371C34.866 12.8951 35.265 13.0671 35.421 13.1551C35.783 13.3601 36 13.7391 36 14.1691V53.8571Z" fill="black"/>
    <path d="M46.797 15.066C46.274 14.889 45.706 15.169 45.528 15.692C45.351 16.214 45.631 16.783 46.154 16.961C53.255 19.372 58.026 26.024 58.026 33.514C58.026 40.997 53.264 47.65 46.177 50.068C45.655 50.246 45.375 50.814 45.554 51.338C45.696 51.753 46.084 52.015 46.5 52.015C46.607 52.015 46.716 51.998 46.823 51.961C54.719 49.268 60.025 41.855 60.025 33.515C60.026 25.166 54.71 17.753 46.797 15.066Z" fill="black"/>
    <path d="M51.026 33.5131C51.026 27.5411 47.017 22.2111 41.277 20.5511C40.744 20.4001 40.193 20.7031 40.039 21.2351C39.886 21.7651 40.191 22.3201 40.723 22.4731C45.612 23.8861 49.027 28.4261 49.027 33.5131C49.027 38.6001 45.612 43.1401 40.723 44.5531C40.192 44.7061 39.886 45.2611 40.039 45.7911C40.166 46.2291 40.565 46.5141 41 46.5141C41.092 46.5141 41.185 46.5011 41.277 46.4751C47.018 44.8151 51.026 39.4851 51.026 33.5131Z" fill="black"/>
    </g>
    <defs>
    <clipPath id="clip0">
    <rect width="52.026" height="52.026" fill="white" transform="translate(8 8)"/>
    </clipPath>
    </defs>
  </symbol>
  <symbol id="time" viewBox="0 0 68 68" >
    <path d="M46.536 8H40V4H28V8H21.464C19.554 8 18 9.554 18 11.464V60.536C18 62.446 19.554 64 21.464 64H46.536C48.446 64 50 62.446 50 60.536V11.464C50 9.554 48.446 8 46.536 8ZM20 23H48V35H20V23ZM20 37H48V49H20V37ZM30 6H38V8H30V6ZM21.464 10H28H40H46.536C47.344 10 48 10.656 48 11.464V21H20V11.464C20 10.656 20.656 10 21.464 10ZM46.536 62H21.464C20.656 62 20 61.344 20 60.536V51H48V60.536C48 61.344 47.344 62 46.536 62Z" fill="black"/>
  </symbol>
  <symbol id="rhomb" viewBox="0 0 59 58">
    <path d="M23.4531 6.55231L51.2368 17.2175L49.6792 46.9371L20.9329 54.6396L4.72427 29.6805L23.4531 6.55231Z" fill="#E01F3D"/>
  </symbol>
  <symbol id="trigle" viewBox="0 0 37 36" >
    <path d="M12.5 1L1 35L35.5 24.5L12.5 1Z" fill="#E01F3D" stroke="#E01F3D"/>
  </symbol>
  <symbol id="vk" viewBox="0 0 24 24">
     <path d="M12 0C5.37423 0 0 5.37423 0 12C0 18.6258 5.37423 24 12 24C18.6258 24 24 18.6258 24 12C24 5.37423 18.6258 0 12 0ZM18.0859 13.3006C18.6503 13.8405 19.2393 14.3558 19.7301 14.9693C19.9509 15.2393 20.1718 15.5092 20.319 15.8282C20.5399 16.2699 20.3436 16.7607 19.9509 16.7853H17.4969C16.8589 16.8344 16.3681 16.589 15.9264 16.1472C15.5828 15.8037 15.2638 15.4356 14.9448 15.0675C14.8221 14.9202 14.6748 14.773 14.5031 14.6748C14.1595 14.454 13.865 14.5276 13.6933 14.8712C13.4969 15.2393 13.4479 15.6319 13.4233 16.0245C13.3988 16.6135 13.227 16.7607 12.638 16.7853C11.3865 16.8344 10.2086 16.6626 9.12883 16.0245C8.17178 15.4601 7.41104 14.6994 6.77301 13.816C5.49693 12.0982 4.53988 10.2086 3.65644 8.26994C3.46012 7.82822 3.60736 7.60736 4.09816 7.58282C4.90798 7.55828 5.69325 7.55828 6.50307 7.58282C6.82209 7.58282 7.04294 7.77914 7.16564 8.07362C7.60736 9.12883 8.1227 10.1595 8.78528 11.092C8.95705 11.3374 9.15337 11.5828 9.39877 11.7791C9.69325 11.9755 9.88957 11.9018 10.0368 11.5828C10.1104 11.3865 10.1595 11.1656 10.184 10.9448C10.2577 10.2086 10.2577 9.47239 10.135 8.7362C10.0613 8.2454 9.81595 7.95092 9.34969 7.85276C9.10429 7.80368 9.15337 7.73006 9.25153 7.58282C9.44785 7.36196 9.64417 7.21472 10.0123 7.21472H12.7853C13.227 7.31288 13.3252 7.48466 13.3742 7.92638V11.0184C13.3742 11.1902 13.4479 11.7055 13.7669 11.8037C14.0123 11.8773 14.184 11.681 14.3313 11.5337C14.9939 10.8221 15.4601 9.98773 15.9018 9.12883C16.0982 8.7362 16.2454 8.34356 16.4172 7.95092C16.5399 7.65644 16.7117 7.5092 17.0552 7.5092H19.7301C19.8037 7.5092 19.8773 7.5092 19.9755 7.53374C20.4172 7.60736 20.5399 7.80368 20.4172 8.2454C20.1963 8.93251 19.7791 9.52147 19.362 10.0859C18.9202 10.6994 18.4294 11.2883 17.9877 11.9264C17.546 12.5153 17.5706 12.8098 18.0859 13.3006Z"/>
  </symbol>
  <symbol id="fb" viewBox="0 0 24 24">
    <path d="M13.9359 23.8452C13.8375 23.8593 13.7344 23.878 13.6359 23.8921C13.7344 23.8733 13.8328 23.8593 13.9359 23.8452Z"/>
    <path d="M14.175 23.8032C14.1281 23.8126 14.0812 23.822 14.0297 23.8267C14.0812 23.822 14.1281 23.8126 14.175 23.8032Z"/>
    <path d="M13.3641 23.9204C13.2469 23.9345 13.1297 23.9438 13.0125 23.9532C13.1297 23.9485 13.2469 23.9345 13.3641 23.9204Z"/>
    <path d="M13.5984 23.8921C13.5422 23.9015 13.4859 23.9062 13.4297 23.9108C13.4813 23.9062 13.5422 23.9015 13.5984 23.8921Z"/>
    <path d="M14.5031 23.7375C14.461 23.7469 14.4188 23.7563 14.3766 23.7657C14.4188 23.7563 14.461 23.7469 14.5031 23.7375Z"/>
    <path d="M15.3141 23.5359C15.2813 23.5453 15.2437 23.5546 15.2109 23.564C15.2437 23.5546 15.2766 23.5453 15.3141 23.5359Z"/>
    <path d="M15.0656 23.6016C15.0281 23.6109 14.9906 23.6203 14.9531 23.6297C14.9953 23.625 15.0281 23.6156 15.0656 23.6016Z"/>
    <path d="M14.7469 23.686C14.7094 23.6954 14.6672 23.7048 14.6297 23.7142C14.6672 23.7001 14.7094 23.6907 14.7469 23.686Z"/>
    <path d="M13.0078 23.9578C12.9469 23.9625 12.8812 23.9671 12.8203 23.9718C12.8812 23.9671 12.9469 23.9625 13.0078 23.9578Z" />
    <path d="M24 12C24 5.37188 18.6281 0 12 0C5.37188 0 0 5.37188 0 12C0 18.6281 5.37188 24 12 24C12.0703 24 12.1406 24 12.2109 23.9953V14.6578H9.63281V11.6531H12.2109V9.44062C12.2109 6.87656 13.7766 5.47969 16.0641 5.47969C17.1609 5.47969 18.1031 5.55938 18.375 5.59688V8.27813H16.8C15.5578 8.27813 15.3141 8.86875 15.3141 9.73594V11.6484H18.2906L17.9016 14.6531H15.3141V23.5359C20.3297 22.0969 24 17.4797 24 12Z"/>
    <path d="M12.7922 23.9719C12.6656 23.9813 12.5437 23.986 12.4172 23.9907C12.5437 23.986 12.6656 23.9813 12.7922 23.9719Z"/>
    <path d="M12.4125 23.9907C12.3469 23.9907 12.2813 23.9954 12.2156 23.9954C12.2766 23.9954 12.3422 23.9954 12.4125 23.9907Z"/>
  </symbol>
  <symbol id="insta" viewBox="0 0 24 24">
    <path d="M14.2969 12C14.2969 13.2703 13.2703 14.2969 12 14.2969C10.7297 14.2969 9.70312 13.2703 9.70312 12C9.70312 10.7297 10.7297 9.70312 12 9.70312C13.2703 9.70312 14.2969 10.7297 14.2969 12Z"/>
    <path d="M17.3719 7.93599C17.2594 7.63599 17.0859 7.36411 16.8562 7.1438C16.6359 6.91411 16.3641 6.74067 16.0641 6.62817C15.8203 6.53442 15.4547 6.42192 14.7844 6.38911C14.0578 6.3563 13.8375 6.34692 12 6.34692C10.1578 6.34692 9.94218 6.35161 9.21561 6.38911C8.5453 6.42192 8.17968 6.53442 7.93593 6.62817C7.63593 6.74067 7.36405 6.91411 7.14374 7.1438C6.91405 7.36411 6.74061 7.63599 6.62811 7.93599C6.53436 8.17974 6.42186 8.54536 6.38905 9.21567C6.35624 9.94224 6.34686 10.1579 6.34686 12C6.34686 13.8375 6.35624 14.0579 6.38905 14.7844C6.42186 15.4547 6.52968 15.8204 6.62811 16.0641C6.74061 16.3641 6.91405 16.636 7.14374 16.8563C7.36405 17.086 7.63593 17.2594 7.93593 17.3719C8.17968 17.4657 8.5453 17.5782 9.21561 17.611C9.94218 17.6438 10.1578 17.6532 12 17.6532C13.8422 17.6532 14.0578 17.6485 14.7844 17.611C15.4547 17.5782 15.8203 17.4704 16.0641 17.3719C16.6641 17.1422 17.1422 16.6641 17.3719 16.0641C17.4656 15.8204 17.5781 15.4547 17.6109 14.7844C17.6437 14.0579 17.6531 13.8375 17.6531 12C17.6531 10.1579 17.6484 9.94224 17.6109 9.21567C17.5781 8.54536 17.4656 8.17974 17.3719 7.93599ZM12 15.5391C10.0453 15.5391 8.46093 13.9547 8.46093 12C8.46093 10.0454 10.0453 8.46099 12 8.46099C13.9547 8.46099 15.5391 10.0454 15.5391 12C15.5391 13.9547 13.9547 15.5391 12 15.5391ZM15.6797 9.15005C15.225 9.15005 14.8547 8.77974 14.8547 8.32505C14.8547 7.87036 15.225 7.50005 15.6797 7.50005C16.1344 7.50005 16.5047 7.87036 16.5047 8.32505C16.5047 8.77974 16.1344 9.15005 15.6797 9.15005Z"/>
    <path d="M12 0C5.37188 0 0 5.37188 0 12C0 18.6281 5.37188 24 12 24C18.6281 24 24 18.6281 24 12C24 5.37188 18.6281 0 12 0ZM18.8484 14.8406C18.8156 15.5719 18.6984 16.0734 18.5297 16.5141C18.1734 17.4375 17.4422 18.1734 16.5141 18.5297C16.0781 18.6984 15.5766 18.8156 14.8406 18.8484C14.1047 18.8813 13.8703 18.8906 12 18.8906C10.1297 18.8906 9.89531 18.8813 9.15937 18.8484C8.42812 18.8156 7.92656 18.6984 7.48594 18.5297C7.02656 18.3562 6.60938 18.0844 6.26719 17.7328C5.91562 17.3906 5.64375 16.9734 5.47031 16.5141C5.30156 16.0781 5.18438 15.5766 5.15156 14.8406C5.11875 14.1047 5.10938 13.8703 5.10938 12C5.10938 10.1297 5.11875 9.89531 5.15156 9.15937C5.18438 8.42812 5.30156 7.92656 5.47031 7.48594C5.64375 7.02656 5.91562 6.60938 6.26719 6.26719C6.60938 5.91562 7.02656 5.64375 7.48594 5.47031C7.92656 5.30156 8.42344 5.18438 9.15937 5.15156C9.89531 5.11875 10.1297 5.10938 12 5.10938C13.8703 5.10938 14.1047 5.11875 14.8406 5.15156C15.5719 5.18438 16.0734 5.30156 16.5141 5.47031C16.9734 5.64375 17.3906 5.91562 17.7328 6.26719C18.0844 6.60938 18.3562 7.02656 18.5297 7.48594C18.6984 7.92656 18.8156 8.42344 18.8484 9.15937C18.8813 9.89531 18.8906 10.1297 18.8906 12C18.8906 13.8703 18.8813 14.1047 18.8484 14.8406Z"/>
  </symbol>
  <symbol id="twit" viewBox="0 0 24 24">
    <path d="M12 24C18.6281 24 24 18.6281 24 12C24 5.37188 18.6281 0 12 0C5.37188 0 0 5.37188 0 12C0 18.6281 5.37188 24 12 24ZM5.48906 11.7422L17.0625 7.27969C17.6016 7.0875 18.0703 7.41094 17.8922 8.22187L15.9234 17.5031C15.7781 18.1594 15.3844 18.3234 14.8406 18.0094L11.8406 15.7969L10.3922 17.1891C10.2328 17.3484 10.0969 17.4844 9.7875 17.4844L9.99844 14.4328L15.5625 9.4125C15.8062 9.20156 15.5063 9.07969 15.1875 9.29062L8.31562 13.6172L5.35312 12.6937C4.71094 12.4875 4.69688 12.0516 5.48906 11.7422Z"/>
  </symbol>
</svg>
